<svg width="95" height="18" viewBox="0 0 95 18" fill="none" xmlns="http://www.w3.org/2000/svg">
<path d="M1.08 17C1 17 0.96 16.96 0.96 16.88L1.008 0.391999C1.008 0.327999 1.04 0.295999 1.104 0.295999L5.592 0.271999C6.472 0.256 7.272 0.464 7.992 0.896C8.728 1.328 9.312 1.912 9.744 2.648C10.176 3.368 10.392 4.168 10.392 5.048V11.936C10.392 12.864 10.168 13.712 9.72 14.48C9.272 15.232 8.672 15.832 7.92 16.28C7.168 16.728 6.32 16.96 5.376 16.976L1.08 17ZM3.888 14.048H5.376C5.968 14.048 6.464 13.84 6.864 13.424C7.28 13.008 7.488 12.512 7.488 11.936V5.024C7.488 4.512 7.296 4.072 6.912 3.704C6.544 3.32 6.104 3.136 5.592 3.152L3.912 3.176L3.888 14.048ZM12.3763 17C12.3123 17 12.2803 16.96 12.2803 16.88L12.3283 0.391999C12.3283 0.327999 12.3603 0.295999 12.4243 0.295999H17.2723C18.1363 0.295999 18.9283 0.511999 19.6483 0.943999C20.3843 1.36 20.9683 1.928 21.4003 2.648C21.8323 3.352 22.0483 4.152 22.0483 5.048C22.0483 5.64 21.9603 6.176 21.7843 6.656C21.6083 7.12 21.4003 7.52 21.1603 7.856C20.9203 8.176 20.7043 8.416 20.5123 8.576C21.3763 9.536 21.8083 10.664 21.8083 11.96L21.8323 16.88C21.8323 16.96 21.7923 17 21.7123 17H19.0003C18.9363 17 18.9043 16.976 18.9043 16.928V11.96C18.9043 11.384 18.6963 10.888 18.2803 10.472C17.8803 10.04 17.3843 9.824 16.7923 9.824H15.2083L15.1843 16.88C15.1843 16.96 15.1523 17 15.0883 17H12.3763ZM15.2083 6.944H17.2723C17.7683 6.944 18.2083 6.76 18.5923 6.392C18.9763 6.024 19.1683 5.576 19.1683 5.048C19.1683 4.536 18.9763 4.096 18.5923 3.728C18.2243 3.36 17.7843 3.176 17.2723 3.176H15.2083V6.944ZM23.9784 17C23.8984 17 23.8584 16.96 23.8584 16.88L23.8824 0.391999C23.8824 0.327999 23.9144 0.295999 23.9784 0.295999H26.6664C26.7304 0.295999 26.7624 0.327999 26.7624 0.391999L26.7864 16.88C26.7864 16.96 26.7544 17 26.6904 17H23.9784ZM31.5855 17C31.5215 17 31.4815 16.96 31.4655 16.88L28.1535 0.391999C28.1375 0.327999 28.1695 0.295999 28.2495 0.295999H30.9615C31.0255 0.295999 31.0655 0.327999 31.0815 0.391999L33.0495 11.384L34.9695 0.391999C34.9855 0.327999 35.0255 0.295999 35.0895 0.295999H37.7775C37.8575 0.295999 37.8895 0.327999 37.8735 0.391999L34.6095 16.88C34.5935 16.96 34.5535 17 34.4895 17H31.5855ZM39.3763 17C39.3123 17 39.2803 16.96 39.2803 16.88L39.3043 0.391999C39.3043 0.327999 39.3363 0.295999 39.4003 0.295999H47.1043C47.1683 0.295999 47.2003 0.335999 47.2003 0.415999V3.104C47.2003 3.168 47.1683 3.2 47.1043 3.2H42.1843V6.944H47.1043C47.1683 6.944 47.2003 6.976 47.2003 7.04L47.2243 9.752C47.2243 9.816 47.1923 9.848 47.1283 9.848H42.1843V14.048H47.1283C47.1923 14.048 47.2243 14.088 47.2243 14.168V16.904C47.2243 16.968 47.1923 17 47.1283 17H39.3763ZM53.0169 17C52.9529 17 52.9209 16.96 52.9209 16.88L52.9689 0.391999C52.9689 0.327999 53.0009 0.295999 53.0649 0.295999H55.9929C56.0569 0.295999 56.1129 0.327999 56.1609 0.391999L58.3449 3.56L60.5289 0.391999C60.5769 0.327999 60.6329 0.295999 60.6969 0.295999H63.6489C63.7129 0.295999 63.7449 0.327999 63.7449 0.391999L63.7929 16.88C63.7929 16.96 63.7609 17 63.6969 17H60.9849C60.9209 17 60.8889 16.96 60.8889 16.88L60.8649 4.64L58.3449 8.288L55.8489 4.64L55.8249 16.88C55.8249 16.96 55.7929 17 55.7289 17H53.0169ZM70.2516 17.24C69.3876 17.24 68.5956 17.024 67.8756 16.592C67.1716 16.144 66.6036 15.56 66.1716 14.84C65.7396 14.104 65.5236 13.296 65.5236 12.416L65.5476 4.808C65.5476 3.928 65.7556 3.128 66.1716 2.408C66.6036 1.688 67.1796 1.112 67.8996 0.68C68.6196 0.248 69.4036 0.0319996 70.2516 0.0319996C71.1156 0.0319996 71.8996 0.248 72.6036 0.68C73.3076 1.112 73.8676 1.688 74.2836 2.408C74.7156 3.128 74.9316 3.928 74.9316 4.808L74.9556 12.416C74.9556 13.296 74.7396 14.104 74.3076 14.84C73.8916 15.56 73.3236 16.144 72.6036 16.592C71.8996 17.024 71.1156 17.24 70.2516 17.24ZM70.2516 14.336C70.7316 14.336 71.1476 14.144 71.4996 13.76C71.8676 13.36 72.0516 12.912 72.0516 12.416L72.0276 4.808C72.0276 4.28 71.8596 3.832 71.5236 3.464C71.1876 3.096 70.7636 2.912 70.2516 2.912C69.7556 2.912 69.3316 3.096 68.9796 3.464C68.6276 3.816 68.4516 4.264 68.4516 4.808V12.416C68.4516 12.944 68.6276 13.4 68.9796 13.784C69.3316 14.152 69.7556 14.336 70.2516 14.336ZM78.8756 17C78.8116 17 78.7796 16.96 78.7796 16.88V3.2H75.6596C75.5796 3.2 75.5396 3.16 75.5396 3.08L75.5636 0.391999C75.5636 0.327999 75.5956 0.295999 75.6596 0.295999H84.7796C84.8596 0.295999 84.8996 0.327999 84.8996 0.391999V3.08C84.8996 3.16 84.8676 3.2 84.8036 3.2H81.6596L81.6836 16.88C81.6836 16.96 81.6516 17 81.5876 17H78.8756ZM89.9859 17.24C89.1219 17.24 88.3299 17.024 87.6099 16.592C86.9059 16.144 86.3379 15.56 85.9059 14.84C85.4739 14.104 85.2579 13.296 85.2579 12.416L85.2819 4.808C85.2819 3.928 85.4899 3.128 85.9059 2.408C86.3379 1.688 86.9139 1.112 87.6339 0.68C88.3539 0.248 89.1379 0.0319996 89.9859 0.0319996C90.8499 0.0319996 91.6339 0.248 92.3379 0.68C93.0419 1.112 93.6019 1.688 94.0179 2.408C94.4499 3.128 94.6659 3.928 94.6659 4.808L94.6899 12.416C94.6899 13.296 94.4739 14.104 94.0419 14.84C93.6259 15.56 93.0579 16.144 92.3379 16.592C91.6339 17.024 90.8499 17.24 89.9859 17.24ZM89.9859 14.336C90.4659 14.336 90.8819 14.144 91.2339 13.76C91.6019 13.36 91.7859 12.912 91.7859 12.416L91.7619 4.808C91.7619 4.28 91.5939 3.832 91.2579 3.464C90.9219 3.096 90.4979 2.912 89.9859 2.912C89.4899 2.912 89.0659 3.096 88.7139 3.464C88.3619 3.816 88.1859 4.264 88.1859 4.808V12.416C88.1859 12.944 88.3619 13.4 88.7139 13.784C89.0659 14.152 89.4899 14.336 89.9859 14.336Z" fill="#2F3035"/>
</svg>
