<?xml version="1.0" standalone="no"?>
<!DOCTYPE svg PUBLIC "-//W3C//DTD SVG 20010904//EN"
 "http://www.w3.org/TR/2001/REC-SVG-20010904/DTD/svg10.dtd">
<svg version="1.0" xmlns="http://www.w3.org/2000/svg"
 width="640.000000pt" height="640.000000pt" viewBox="0 0 640.000000 640.000000"
 preserveAspectRatio="xMidYMid meet">
<metadata>
Created by potrace 1.14, written by Peter Selinger 2001-2017
</metadata>
<g transform="translate(0.000000,640.000000) scale(0.100000,-0.100000)"
fill="#000000" stroke="none">
<path d="M3059 6235 c-2 -1 -31 -6 -64 -9 -57 -6 -109 -14 -147 -22 -10 -2
-28 -6 -40 -9 -13 -2 -36 -7 -53 -11 -115 -22 -327 -99 -466 -169 -368 -184
-654 -454 -888 -838 -22 -37 -41 -69 -41 -72 0 -2 -18 -42 -41 -87 -39 -80
-119 -305 -135 -378 -4 -19 -9 -39 -10 -45 -7 -26 -33 -165 -39 -205 -5 -35
-17 -249 -17 -305 0 -22 12 -172 17 -210 3 -22 6 -47 6 -55 1 -13 9 -55 25
-140 40 -206 150 -475 275 -676 52 -84 77 -108 125 -124 59 -20 98 -8 294 89
210 104 210 104 239 151 35 59 27 143 -21 191 -52 54 -119 68 -185 39 -24 -11
-43 -16 -43 -12 0 4 -4 3 -8 -3 -10 -14 -159 -85 -165 -78 -6 5 -63 122 -91
183 -30 68 -91 273 -101 339 -2 14 -6 37 -9 51 -15 81 -19 119 -21 255 -3 200
7 283 69 540 8 36 39 116 46 120 4 3 65 -22 135 -56 132 -63 166 -70 228 -50
95 32 135 159 77 245 -20 31 -50 49 -157 102 -73 35 -133 67 -133 70 0 28 192
269 274 344 27 25 61 57 75 71 37 36 178 139 190 139 6 0 11 4 11 9 0 10 76
53 209 117 95 46 267 108 330 119 19 3 37 8 41 10 14 8 140 28 189 29 l35 1 1
-140 c2 -151 10 -186 53 -224 57 -49 127 -56 194 -19 70 39 83 77 83 246 l0
143 65 -7 c36 -3 68 -8 71 -10 4 -2 24 -6 45 -10 75 -12 183 -43 290 -84 136
-52 173 -60 216 -45 119 41 155 187 66 274 -50 49 -334 152 -482 175 -21 4
-41 8 -45 10 -3 2 -28 6 -56 10 -27 3 -61 9 -75 12 -26 6 -435 15 -441 9z"/>
<path d="M4526 5629 c-22 -11 -62 -37 -90 -58 -59 -43 -218 -151 -244 -166 -9
-5 -19 -13 -22 -16 -3 -3 -48 -34 -100 -69 -52 -36 -97 -67 -100 -70 -3 -3
-23 -17 -45 -30 -22 -13 -42 -27 -45 -30 -3 -4 -47 -36 -98 -71 -51 -35 -103
-71 -115 -79 -63 -43 -243 -170 -252 -177 -5 -5 -52 -38 -103 -73 -189 -132
-388 -285 -435 -334 -56 -58 -111 -167 -125 -244 -47 -263 122 -518 383 -578
84 -20 211 -8 293 27 112 48 165 98 309 294 57 77 106 145 111 150 9 12 258
364 301 425 17 25 51 74 76 110 25 36 67 97 93 135 26 39 49 72 52 75 3 3 35
48 70 100 35 52 66 97 69 100 3 3 11 13 16 22 6 10 61 92 124 184 117 171 134
211 118 276 -8 31 -55 87 -89 104 -39 20 -107 17 -152 -7z m-582 -811 c-10
-17 -241 -345 -335 -476 -41 -57 -81 -114 -89 -126 -34 -50 -136 -183 -157
-205 -50 -52 -110 -68 -173 -46 -59 21 -86 48 -105 106 -14 40 -14 54 -4 90
12 40 77 119 97 119 6 0 12 4 14 9 2 7 107 85 188 141 12 8 31 23 43 32 12 9
112 80 222 157 110 77 205 145 212 150 7 6 17 11 23 11 5 0 10 3 10 8 0 6 48
41 58 42 2 0 0 -6 -4 -12z"/>
<path d="M4965 5078 c-16 -6 -41 -20 -53 -32 -23 -20 -58 -76 -48 -76 3 0 1
-11 -4 -25 -7 -20 -5 -39 9 -78 11 -29 36 -97 56 -151 37 -102 69 -224 81
-312 4 -27 9 -62 11 -79 13 -83 4 -417 -12 -495 -3 -14 -8 -38 -11 -55 -3 -16
-12 -55 -20 -85 -8 -30 -17 -64 -19 -75 -7 -32 -41 -124 -48 -132 -4 -3 -7
-12 -7 -20 0 -15 -89 -201 -99 -208 -4 -2 -31 9 -61 23 -114 56 -185 85 -213
87 -117 10 -208 -112 -166 -222 10 -28 66 -93 80 -93 4 0 78 -34 164 -75 244
-118 251 -119 322 -90 43 18 70 48 125 140 132 220 249 526 273 714 2 18 6 44
9 59 12 59 18 121 22 212 3 52 5 100 6 105 1 19 -12 240 -16 260 -2 11 -7 45
-12 75 -4 30 -8 57 -9 60 -2 10 -28 125 -30 140 -2 8 -4 15 -5 15 -1 0 -3 7
-5 15 -6 33 -75 228 -98 280 -48 108 -128 151 -222 118z"/>
<path d="M4560 1744 c-65 -30 -122 -84 -157 -147 l-28 -52 0 -340 c0 -187 3
-347 6 -355 16 -45 54 -105 87 -137 112 -108 293 -116 410 -18 36 30 91 105
97 133 2 9 8 31 13 47 11 37 9 606 -2 655 -10 40 -29 81 -54 112 -31 38 -87
88 -99 88 -7 0 -13 4 -13 8 0 14 -95 33 -154 31 -34 -2 -77 -12 -106 -25z
m175 -180 c64 -30 68 -54 69 -369 0 -253 -2 -283 -18 -311 -48 -81 -144 -86
-200 -11 -20 27 -21 40 -21 326 l0 298 28 36 c16 21 32 35 37 32 5 -3 11 -1
15 5 9 15 52 12 90 -6z"/>
<path d="M5873 1743 c-91 -43 -166 -135 -181 -223 -3 -19 -6 -172 -6 -340 l-1
-305 33 -67 c57 -117 153 -179 277 -181 145 -1 264 92 310 242 7 24 9 196 5
516 -2 132 -3 144 -30 200 -76 159 -256 229 -407 158z m200 -191 c40 -35 41
-51 44 -342 2 -263 0 -288 -17 -325 -12 -25 -31 -45 -51 -54 -35 -15 -102 -10
-122 11 -27 27 -47 65 -47 89 0 13 0 74 0 134 -1 61 -1 115 0 120 2 6 2 12 1
15 -3 9 -2 193 1 252 4 59 28 99 73 119 28 12 96 1 118 -19z"/>
<path d="M71 1740 c-4 -8 -7 -258 -6 -554 0 -531 0 -539 20 -542 67 -11 318
-2 369 13 112 33 196 120 226 233 9 30 13 137 12 325 0 261 -1 284 -21 336
-28 73 -93 142 -168 176 -56 26 -64 27 -241 27 -154 1 -185 -1 -191 -14z m332
-179 c9 -1 34 -16 55 -35 l37 -34 2 -273 c2 -258 1 -275 -19 -310 -33 -59 -85
-77 -200 -70 -17 1 -18 25 -18 360 0 328 1 360 17 363 14 3 53 2 126 -1z"/>
<path d="M843 1752 l-22 -3 -1 -462 c-2 -580 -2 -629 9 -640 5 -5 28 -8 50 -5
23 2 41 1 41 -2 0 -3 20 -4 45 -2 41 4 45 6 46 31 0 14 1 120 2 236 l2 210 78
-1 c88 -1 120 -16 149 -75 15 -29 18 -63 18 -216 l0 -183 43 -1 c23 -1 56 0
72 1 17 1 41 3 55 4 l25 1 -1 201 c-1 196 -2 202 -28 260 -15 32 -34 66 -42
76 -15 15 -14 19 5 40 12 12 34 47 49 78 23 47 27 68 27 140 0 72 -4 92 -27
135 -32 61 -79 110 -132 138 -23 12 -43 22 -46 22 -3 1 -21 5 -40 10 -33 8
-331 13 -377 7z m331 -194 c15 -1 44 -17 64 -35 31 -29 36 -39 36 -80 0 -94
-53 -133 -181 -133 l-79 0 0 125 0 124 40 3 c23 2 52 2 66 1 14 -1 38 -4 54
-5z"/>
<path d="M1600 1750 c-4 -3 -8 -254 -9 -557 l-2 -553 38 -1 c21 -1 42 -1 47 0
5 1 31 2 57 3 36 0 49 4 52 16 8 30 2 1080 -5 1088 -9 8 -165 12 -178 4z"/>
<path d="M1881 1752 c-6 -2 -7 -12 -1 -26 4 -12 11 -38 14 -57 3 -19 10 -59
16 -89 6 -30 13 -66 16 -80 3 -14 12 -59 20 -100 9 -41 17 -84 20 -95 2 -11 8
-42 14 -70 6 -27 12 -61 15 -75 6 -31 19 -93 20 -100 1 -3 5 -23 9 -45 4 -22
12 -60 17 -85 5 -25 12 -56 14 -70 13 -69 37 -187 41 -202 3 -9 13 -17 22 -17
9 0 43 0 76 -1 32 0 61 2 64 5 3 2 10 1 16 -5 17 -13 33 1 39 35 11 60 17 91
27 135 5 25 12 61 15 80 4 19 10 53 15 75 5 22 11 54 14 70 3 17 8 41 11 55 3
14 8 41 11 60 7 39 8 44 17 80 4 14 9 39 11 55 2 17 5 30 6 30 1 0 3 11 5 25
2 14 18 95 35 180 17 85 33 164 34 175 1 12 5 26 9 32 12 20 -17 29 -93 27
-41 -1 -80 -2 -86 -3 -11 -1 -18 -24 -30 -101 -7 -43 -53 -304 -59 -335 -4
-16 -8 -46 -10 -65 -2 -19 -7 -44 -9 -56 -3 -12 -8 -39 -12 -60 -3 -21 -8 -46
-9 -54 -2 -8 -4 -24 -5 -35 -1 -19 -2 -19 -10 2 -5 13 -11 40 -14 60 -2 21 -7
49 -10 63 -3 14 -8 41 -11 60 -10 59 -15 85 -29 155 -3 18 -12 73 -22 135 -3
14 -7 36 -9 50 -8 40 -35 182 -35 184 0 3 -182 0 -189 -2z"/>
<path d="M2624 1749 c-9 -16 -6 -1091 3 -1100 6 -6 53 -10 104 -9 52 1 101 1
109 1 8 0 35 0 60 0 25 0 52 0 60 0 59 -2 145 1 152 5 4 3 8 1 8 -5 0 -6 7 -8
15 -5 12 5 15 26 15 100 0 52 -3 95 -7 96 -5 0 -76 2 -158 3 -83 1 -156 4
-162 8 -12 8 -16 266 -5 268 4 1 79 2 167 4 l160 1 1 97 1 97 -168 0 -168 0 1
125 2 125 115 0 c64 1 139 0 166 0 l50 -1 1 96 c1 52 -2 95 -5 96 -33 5 -514
2 -517 -2z"/>
<path d="M3540 1750 c-5 -3 -10 -254 -12 -558 l-3 -552 30 -1 c59 -1 160 3
164 7 2 2 4 184 4 404 0 220 4 400 8 400 4 0 11 -9 14 -20 3 -11 10 -20 15
-20 5 0 12 -9 15 -20 3 -11 12 -26 18 -32 7 -7 30 -39 51 -71 41 -60 54 -65
71 -29 5 12 13 22 17 22 5 0 8 5 8 10 0 6 5 16 10 23 6 7 33 42 59 80 l48 67
1 -400 c0 -219 3 -404 6 -409 7 -10 86 -20 86 -11 0 4 23 4 50 0 41 -5 50 -4
51 9 0 9 0 106 0 216 0 110 -1 355 -1 545 l0 345 -105 -1 c-58 0 -106 -2 -108
-5 -2 -2 -27 -38 -55 -79 -29 -41 -62 -88 -74 -103 l-23 -28 -65 97 c-36 53
-68 101 -71 107 -7 10 -194 16 -209 7z"/>
<path d="M5038 1740 c-2 -8 -3 -51 -3 -95 l0 -80 35 -2 c19 -1 53 -2 75 -2 22
-1 53 -1 69 -1 17 0 32 -2 34 -4 2 -2 4 -208 5 -458 l2 -453 40 -3 c59 -3 137
-2 144 2 4 3 6 210 6 460 l-1 456 81 1 c44 1 92 0 108 -1 l27 -2 0 96 c0 53
-3 96 -7 97 -5 0 -144 2 -310 2 -261 2 -302 0 -305 -13z"/>
</g>
</svg>
